<?xml version="1.0" encoding="utf-8"?>
<!-- Generator: Adobe Illustrator 26.3.1, SVG Export Plug-In . SVG Version: 6.00 Build 0)  -->
<svg version="1.1" id="Calque_1" xmlns="http://www.w3.org/2000/svg" xmlns:xlink="http://www.w3.org/1999/xlink" x="0px" y="0px"
	 viewBox="0 0 32 32" style="enable-background:new 0 0 32 32;" xml:space="preserve">
<g>
	<g>
		<path d="M16,20.27c-2.64,0-4.79,2.15-4.79,4.79c0,2.64,2.15,4.79,4.79,4.79c2.64,0,4.79-2.15,4.79-4.79
			C20.79,22.42,18.64,20.27,16,20.27z M16,27.7c-1.45,0-2.63-1.18-2.63-2.63c0-1.45,1.18-2.63,2.63-2.63c1.45,0,2.63,1.18,2.63,2.63
			C18.63,26.51,17.45,27.7,16,27.7z"/>
		<path d="M16,15.05c-3.19,0-6.19,1.24-8.44,3.5c-0.42,0.42-0.42,1.1,0,1.53c0.21,0.21,0.49,0.32,0.76,0.32
			c0.28,0,0.55-0.11,0.76-0.32c1.85-1.85,4.3-2.86,6.91-2.86c2.61,0,5.07,1.02,6.91,2.86c0.42,0.42,1.11,0.42,1.53,0
			c0.42-0.42,0.42-1.1,0-1.53C22.19,16.29,19.19,15.05,16,15.05z"/>
		<path d="M3.76,14.74c-0.42,0.42-0.42,1.1,0,1.53c0.42,0.42,1.1,0.42,1.53,0c5.91-5.91,15.52-5.91,21.43,0
			c0.21,0.21,0.49,0.32,0.76,0.32c0.28,0,0.55-0.11,0.76-0.32c0.42-0.42,0.42-1.1,0-1.53C21.49,7.99,10.51,7.99,3.76,14.74z"/>
		<path d="M31.68,11.3C27.49,7.11,21.92,4.8,16,4.8S4.51,7.11,0.32,11.3c-0.42,0.42-0.42,1.11,0,1.53c0.42,0.42,1.11,0.42,1.53,0
			C5.62,9.04,10.65,6.96,16,6.96s10.38,2.08,14.16,5.86c0.21,0.21,0.49,0.32,0.76,0.32c0.28,0,0.55-0.11,0.76-0.32
			C32.11,12.4,32.11,11.72,31.68,11.3z"/>
	</g>
</g>
</svg>
