<?xml version="1.0" encoding="utf-8"?>
<!-- Generator: Adobe Illustrator 26.3.1, SVG Export Plug-In . SVG Version: 6.00 Build 0)  -->
<svg version="1.1" id="Calque_1" xmlns="http://www.w3.org/2000/svg" xmlns:xlink="http://www.w3.org/1999/xlink" x="0px" y="0px"
	 viewBox="0 0 512 475" style="enable-background:new 0 0 512 475;" xml:space="preserve">
<style type="text/css">
	.st0{fill:#FFFFFF;}
</style>
<g>
	<path class="st0" d="M74.49,265.54c0-96.96,78.6-175.56,175.56-175.56s175.56,78.6,175.56,175.56H74.49z"/>
	<g>
		<path d="M507.24,261.77H315.24c-0.39-0.21-0.81-0.39-1.04-0.73c-6.04-8.94-12.1-17.88-18.15-26.82c-2.08-3.07-4.16-6.15-6.25-9.25
			c0.23-0.1,0.43-0.18,0.61-0.25c-0.59-1.18,0.07-3.4,1.42-4.68c-0.63-0.04-1.2-0.08-1.84-0.12c0-2.08,0-4.11,0-6.23
			c-1.68,0-3.36-0.01-5.05,0.01c-0.5,0.01-0.81-0.06-0.99-0.46c-1.58-3.49-3.45-6.93-4.75-10.47c-3.21-8.72-6.16-17.49-9.23-26.24
			c-0.54-1.53-0.15-3,0.5-4.45c0.22-0.49,0.62-0.9,1.46-0.97c0.14-0.01,0.37-0.26,0.35-0.37c-0.09-0.53-0.25-1.05-0.41-1.65
			c-1.37,0-2.76,0-4.17,0c-0.18-0.86-0.36-1.65-0.51-2.44c-1.05-5.55-2.26-11.1-3.1-16.67c-0.92-6.12-1.57-12.26-2.2-18.41
			c-0.85-8.3-1.65-16.6-2.3-24.91c-0.83-10.67-1.56-21.35-2.22-32.03c-0.59-9.53-1.04-19.07-1.52-28.6c-0.06-1.1-0.02-2.21,0.16-3.3
			c0.26-1.53,0.65-3.06,2.02-4.32c0.42-0.39,1.04-0.68,1.82-1.17c-0.1-1.03-0.22-2.31-0.35-3.62c-0.62,0-1.09-0.01-1.57,0
			c-0.52,0.01-1.01,0.01-0.71-0.55c0.3-0.03,0.6-0.06,0.91-0.1c0-0.81,0-1.58,0-2.21c-0.42-0.18-0.71-0.31-0.99-0.43
			c0.36-0.12,0.73-0.25,1.12-0.38c0-0.62,0-1.28,0-1.99c-0.65,0-1.24,0-1.82,0c-0.13-0.22-0.23-0.39-0.32-0.56
			c-0.9-1.64-2.14-3.07-4.45-3.89c-0.19-0.07-0.23-0.38-0.31-0.58c-0.14-0.39,0.34-0.93-0.52-1.18c-0.04-0.01,0-0.36,0.13-0.48
			c0.55-0.49,0.53-1.83-0.03-2.37c-0.12-0.12-0.13-0.42-0.01-0.54c0.6-0.58,0.6-1.79-0.02-2.41c-0.11-0.11-0.14-0.41-0.08-0.43
			c0.92-0.33,0.42-0.92,0.5-1.39c0.06-0.32-0.01-0.68-0.14-1c-0.21-0.52-0.74-1.01-0.76-1.53c-0.07-3.01-0.04-6.02-0.03-9.04
			c0-0.2,0.04-0.39,0.07-0.6c0.5-0.04,0.93-0.07,1.4-0.1c-0.09-0.35-0.15-0.64-0.22-0.92c-0.02,0.69-0.63,0.5-1.23,0.46
			c0-0.29,0-0.54,0-0.78c-0.26,0-0.51,0-0.77,0c0,0.25,0,0.5,0,0.99c-0.55-0.25-0.91-0.4-1.25-0.56c-0.04,0.21-0.09,0.5-0.15,0.82
			c0.52,0.03,0.92,0.06,1.43,0.1c0,0.28,0,0.52,0,0.77c0,2.74,0.02,5.47-0.02,8.21c-0.01,0.5-0.19,1-0.37,1.48
			c-0.12,0.32-0.58,0.63-0.52,0.9c0.14,0.71-0.64,1.54,0.45,2.15c0.09,0.05,0.06,0.33-0.04,0.44c-0.65,0.7-0.64,1.64,0.03,2.45
			c0.09,0.12,0.09,0.34,0,0.46c-0.68,0.83-0.68,1.72-0.03,2.46c0.1,0.12-0.01,0.36-0.1,0.53c-0.06,0.12-0.36,0.24-0.33,0.33
			c0.24,0.94-0.34,1.5-1.51,1.83c-0.17,0.05-0.29,0.18-0.43,0.27c-1.59,0.97-2.43,2.28-3.15,3.69c-0.61,0-1.2,0-1.82,0
			c0,0.73,0,1.4,0,1.98c0.44,0.16,0.77,0.28,1.1,0.39c-0.32,0.12-0.64,0.25-0.98,0.38c0,0.73,0,1.5,0,2.28
			c0.36,0.03,0.63,0.05,0.96,0.07c0,0.17,0.03,0.41,0,0.41c-0.76,0.09-1.52,0.15-2.34,0.23c-0.13,1.28-0.25,2.54-0.38,3.81
			c1.29,0.12,1.81,0.75,2.28,1.37c1.3,1.69,1.81,3.55,1.77,5.44c-0.1,4.87-0.31,9.75-0.57,14.62c-0.35,6.41-0.77,12.82-1.19,19.22
			c-0.47,7.07-0.97,14.15-1.46,21.22c-0.32,4.59-0.62,9.19-1.02,13.78c-0.5,5.76-1.08,11.51-1.66,17.27
			c-0.45,4.47-0.82,8.95-1.46,13.41c-0.86,5.96-1.93,11.91-2.97,17.86c-0.43,2.46-1,4.9-1.52,7.41c-1.44,0-2.83,0-4.16,0
			c-0.16,0.58-0.33,1.08-0.41,1.59c-0.02,0.13,0.22,0.31,0.4,0.42c0.41,0.26,1.05,0.43,1.25,0.74c0.86,1.39,1.23,2.88,0.74,4.36
			c-1.63,4.89-3.38,9.76-5.07,14.64c-2.54,7.33-4.81,14.71-8.68,21.76c-0.58,1.05-0.53,1.06-2.1,1.06c-1.42,0-2.84,0-4.25,0
			c0,2.15,0,4.18,0,6.24c-0.66,0.04-1.22,0.08-1.92,0.12c1.22,0.87,1.48,1.86,1.61,2.86c0.09,0.67-0.15,1.37,0.02,2.01
			c0.14,0.5-0.05,0.85-0.32,1.25c-2.19,3.22-4.36,6.44-6.54,9.66c-5.71,8.45-11.42,16.89-17.15,25.33
			c-0.16,0.23-0.44,0.43-0.72,0.61H5.08c-2.08,0-3.76,1.67-3.76,3.76s1.67,3.76,3.76,3.76h502.16c2.08,0,3.76-1.67,3.76-3.76
			S509.33,261.77,507.24,261.77z M241.52,183.72c5.7,0,11.34,0,16.94,0c2.46,9.97,4.92,19.93,7.38,29.91c-10.46,0-21.08,0-31.63,0
			C237.18,203.74,239.23,193.76,241.52,183.72z M208.06,258.71c1.82-7.23,6.92-13.05,14.87-17.61c9.1-5.22,19.42-7.38,31.04-6.8
			c13.9,0.68,27.73,7.64,33.64,15.51c2.78,3.7,4.77,7.56,4.77,11.84c0,0.05-0.06,0.08-0.06,0.12H207.9
			C207.69,260.76,207.81,259.72,208.06,258.71z"/>
		<path d="M99.42,298.77v0.5c3.58,0.56,4.81,1.06,4.81,8.81v21.96c-6.37,0.09-12.77,0.09-19.05,0.09c-6.02,0-11.92,0-17.82-0.09
			v-21.96c0-7.75,1.26-8.25,4.84-8.81v-0.5c-2.03,0.09-5.14,0.21-8.43,0.21c-3.58,0-6.28-0.12-8.43-0.21v0.5
			c3.58,0.56,4.84,1.06,4.84,8.81v51.97c0,7.75-1.26,8.22-4.84,8.81v0.5c2.14-0.12,4.84-0.21,8.43-0.21c3.29,0,6.4,0.09,8.43,0.21
			v-0.5c-3.58-0.59-4.84-1.06-4.84-8.81v-27.01c5.9-0.09,11.8-0.09,17.82-0.09c6.28,0,12.68,0,19.05,0.09v27.01
			c0,7.75-1.23,8.22-4.81,8.81v0.5c2.11-0.12,4.81-0.21,8.4-0.21c3.29,0,6.4,0.09,8.43,0.21v-0.5c-3.58-0.59-4.84-1.06-4.84-8.81
			v-51.97c0-7.75,1.26-8.25,4.84-8.81v-0.5c-2.03,0.09-5.14,0.21-8.43,0.21C104.23,298.97,101.53,298.86,99.42,298.77z"/>
		<path d="M159.6,298.3c-21.96,0-35.44,18.09-35.44,36.38c0,17.82,13.18,35.44,34.67,35.44c20.11,0,35.23-15.97,35.23-35.73
			C194.07,313.68,178.57,298.3,159.6,298.3z M158.84,367.88c-14.15,0-25.66-10.16-25.66-33.5c0-24.19,12.77-33.97,25.66-33.97
			c13.06,0,26.31,10.07,26.31,34.56C185.14,357.34,173.43,367.88,158.84,367.88z"/>
		<path d="M225.72,360.04v-57.4c17.12,0,19.93,0.59,19.93,3.58c0,0.5-0.09,1.06-0.21,1.44h0.59c0.38-2.11,2.32-8.81,2.99-10.33
			h-0.56c-2.82,2.41-6.49,2.41-28.36,2.41c-18.41,0-20.73-0.09-21.02-3.2h-0.47c-1.17,6.19-2.52,8.43-3.29,12.3h0.47
			c2.91-6.19,7.46-6.19,22.75-6.19v57.4c0,7.75-1.26,8.22-4.84,8.81v0.5c2.14-0.12,4.84-0.21,8.43-0.21c3.29,0,6.37,0.09,8.43,0.21
			v-0.5C226.98,368.26,225.72,367.79,225.72,360.04z"/>
		<path d="M273.31,366.23c-4.55,0-7.16-0.21-8.22-0.59V334.2c17.79,0,18.76,0.18,20.23,8.51h0.47c-0.09-3.29-0.21-4.76-0.21-9.86
			c0-3.99,0.12-6.02,0.21-9.01h-0.47c-1.47,7.25-2.44,7.46-20.23,7.46v-28.86c1.44-0.38,2.7-0.56,8.1-0.56
			c14.24,0,17.23,0.29,17.23,8.9h0.5c0.47-2.03,0.59-5.81,0.59-7.93c0-1.56-0.12-3.41-0.12-4.08c-4.35,0.21-12.1,0.21-26.89,0.21
			c-6.99,0-10.45-0.12-12.39-0.21v0.5c4.26,0.68,5.81,1.06,5.81,8.81v51.97c0,6.58-0.88,8.04-5.52,8.81v0.5
			c2.03-0.12,12.1-0.21,19.44-0.21c9.01,0,10.95,0,19.93,0.29c0-4.26,0.5-4.64,0.59-12.77h-0.47
			C290.43,366.23,288.4,366.23,273.31,366.23z"/>
		<path d="M300.14,368.85v0.5c2.03-0.12,12.1-0.21,19.44-0.21c9.01,0,10.95,0,19.93,0.29c0-4.26,0.5-4.64,0.59-12.77h-0.47
			c-1.47,9.57-3.49,9.57-18.58,9.57c-4.55,0-7.16-0.21-8.22-0.59v-57.57c0-7.75,1.23-8.25,4.81-8.81v-0.5
			c-2.03,0.09-5.11,0.21-8.4,0.21c-3.58,0-6.31-0.12-8.43-0.21v0.5c3.58,0.56,4.84,1.06,4.84,8.81v51.97
			C305.66,366.62,304.78,368.08,300.14,368.85z"/>
		<path d="M345.62,368.85v0.5c2.03-0.12,12.1-0.21,19.44-0.21c9.01,0,10.95,0,19.93,0.29c0-4.26,0.5-4.64,0.59-12.77h-0.47
			c-1.47,9.57-3.49,9.57-18.58,9.57c-4.55,0-7.16-0.21-8.22-0.59v-57.57c0-7.75,1.23-8.25,4.81-8.81v-0.5
			c-2.03,0.09-5.11,0.21-8.4,0.21c-3.58,0-6.31-0.12-8.43-0.21v0.5c3.58,0.56,4.84,1.06,4.84,8.81v51.97
			C351.14,366.62,350.26,368.08,345.62,368.85z"/>
		<path d="M423.72,298.3c-21.96,0-35.44,18.09-35.44,36.38c0,17.82,13.18,35.44,34.67,35.44c20.11,0,35.23-15.97,35.23-35.73
			C458.18,313.68,442.68,298.3,423.72,298.3z M422.95,367.88c-14.15,0-25.66-10.16-25.66-33.5c0-24.19,12.77-33.97,25.66-33.97
			c13.06,0,26.31,10.07,26.31,34.56C449.26,357.34,437.54,367.88,422.95,367.88z"/>
		<path d="M172.28,395.39c-0.68-0.62-1.47-1.06-2.41-1.38c-0.94-0.32-1.97-0.5-3.11-0.5h-6.72v21.05h3.49v-6.81h3.02
			c1.09-0.03,2.11-0.21,3.05-0.5c0.94-0.32,1.79-0.76,2.47-1.38c0.7-0.59,1.26-1.35,1.67-2.23c0.38-0.88,0.59-1.91,0.59-3.05v-0.06
			c0-1.09-0.18-2.06-0.53-2.94S172.93,395.98,172.28,395.39z M170.79,400.61c0,1.2-0.35,2.14-1.09,2.88
			c-0.76,0.73-1.79,1.09-3.14,1.09h-3.02v-7.9h3.02c1.35,0,2.38,0.32,3.14,1c0.73,0.68,1.09,1.64,1.09,2.91V400.61z"/>
		<path d="M212.57,393.39l-7.72,21.17h3.49l1.76-4.96h8.16l1.76,4.96h3.64l-7.75-21.17H212.57z M211.19,406.51l2.99-8.46l2.99,8.46
			H211.19z"/>
		<path d="M269.26,404.2c0.82-1,1.23-2.32,1.23-3.93v-0.15c0-0.94-0.15-1.82-0.47-2.61c-0.29-0.76-0.73-1.44-1.29-2
			c-0.62-0.65-1.44-1.14-2.38-1.47c-0.94-0.35-2.03-0.53-3.23-0.53h-7.6v21.05h3.49v-7.43h3.35c0.12,0,0.18,0,0.21-0.03l4.49,7.46
			h4.02l-4.96-8.16C267.41,405.96,268.46,405.22,269.26,404.2z M262.77,403.99h-3.76v-7.31h3.82c1.32,0,2.35,0.29,3.05,0.88
			c0.73,0.62,1.09,1.53,1.09,2.73v0.06c0,1.09-0.35,1.97-1.09,2.64C265.18,403.64,264.12,403.99,262.77,403.99z"/>
		<rect x="303.31" y="393.51" width="3.49" height="21.05"/>
		<path d="M351.93,405.02c-0.5-0.5-1.09-0.94-1.79-1.35c-0.7-0.38-1.56-0.79-2.52-1.17c-0.91-0.32-1.64-0.65-2.2-0.94
			c-0.56-0.29-1-0.56-1.32-0.85c-0.32-0.26-0.56-0.53-0.68-0.85c-0.12-0.29-0.18-0.62-0.18-1v-0.03c0-0.68,0.26-1.26,0.82-1.73
			c0.53-0.47,1.29-0.68,2.26-0.68c0.82,0,1.64,0.18,2.44,0.53c0.79,0.38,1.56,0.85,2.26,1.44l2-2.67c-0.97-0.85-2-1.47-3.11-1.88
			c-1.12-0.38-2.29-0.59-3.49-0.59c-1,0-1.88,0.15-2.7,0.44c-0.82,0.29-1.53,0.7-2.11,1.2c-0.59,0.53-1.06,1.15-1.38,1.88
			c-0.32,0.7-0.5,1.5-0.5,2.38v0.06c0,0.82,0.15,1.56,0.41,2.17c0.23,0.65,0.65,1.2,1.14,1.67c0.5,0.5,1.15,0.94,1.91,1.32
			c0.73,0.41,1.61,0.79,2.61,1.17c0.85,0.29,1.53,0.59,2.06,0.85c0.53,0.26,0.91,0.53,1.2,0.82c0.29,0.26,0.5,0.53,0.62,0.82
			c0.09,0.29,0.15,0.62,0.15,0.94v0.03c0,0.76-0.29,1.41-0.88,1.91c-0.59,0.5-1.38,0.76-2.41,0.76c-1.15,0-2.14-0.23-3.02-0.73
			c-0.91-0.47-1.73-1.06-2.52-1.76l-2.08,2.61c1.14,1.06,2.35,1.82,3.64,2.32c1.26,0.47,2.58,0.7,3.96,0.7
			c0.97,0,1.88-0.15,2.7-0.44c0.85-0.29,1.56-0.68,2.17-1.2c0.62-0.53,1.09-1.17,1.44-1.91c0.32-0.76,0.5-1.59,0.5-2.52v-0.06
			c0-0.76-0.12-1.44-0.35-2.03C352.75,406.05,352.4,405.52,351.93,405.02z"/>
		<polygon points="141.09,458.11 138.06,448.76 135.02,458.11 125.19,458.11 133.14,463.88 130.11,473.22 138.06,467.45 146,473.22 
			142.97,463.88 150.91,458.11 		"/>
		<polygon points="200.23,458.11 197.2,448.76 194.16,458.11 184.34,458.11 192.29,463.88 189.25,473.22 197.2,467.45 
			205.14,473.22 202.11,463.88 210.06,458.11 		"/>
		<polygon points="259.37,458.11 256.34,448.76 253.3,458.11 243.48,458.11 251.43,463.88 248.39,473.22 256.34,467.45 
			264.29,473.22 261.25,463.88 269.2,458.11 		"/>
		<polygon points="318.52,458.11 315.48,448.76 312.44,458.11 302.62,458.11 310.57,463.88 307.53,473.22 315.48,467.45 
			323.43,473.22 320.39,463.88 328.34,458.11 		"/>
		<polygon points="377.66,458.11 374.62,448.76 371.59,458.11 361.76,458.11 369.71,463.88 366.67,473.22 374.62,467.45 
			382.57,473.22 379.54,463.88 387.48,458.11 		"/>
	</g>
</g>
</svg>
